<mxfile host="app.diagrams.net" modified="2021-05-03T10:40:53.820Z" agent="5.0 (Macintosh; Intel Mac OS X 10_15_7) AppleWebKit/537.36 (KHTML, like Gecko) Chrome/90.0.4430.93 Safari/537.36" etag="NjCg5PBkka440a4xHQbu" version="14.6.9" type="github">
  <diagram id="m-phTSBwbPQnJh9M9eVm" name="Page-1">
    <mxGraphModel dx="765" dy="739" grid="1" gridSize="10" guides="1" tooltips="1" connect="1" arrows="1" fold="1" page="1" pageScale="1" pageWidth="850" pageHeight="1100" math="0" shadow="0">
      <root>
        <mxCell id="0" />
        <mxCell id="1" parent="0" />
        <mxCell id="RU6WmHLyBRQG3oLok9dG-24" value="" style="ellipse;shape=cloud;whiteSpace=wrap;html=1;" vertex="1" parent="1">
          <mxGeometry x="310" y="40" width="130" height="140" as="geometry" />
        </mxCell>
        <mxCell id="RU6WmHLyBRQG3oLok9dG-4" value="" style="shape=image;verticalLabelPosition=bottom;labelBackgroundColor=#ffffff;verticalAlign=top;aspect=fixed;imageAspect=0;image=data:image/jpeg,/9j/4AAQSkZJRgABAQAAAQABAAD/2wCEAAkGBxIREhUTEhIVFRIVEhAVFRgYERAVFRkVFRcWFhcVFxUaHiggGBolHRcYITEhJikrLi4uFx8zODMtNygtLisBCgoKBQUFDgUFDisZExkrKysrKysrKysrKysrKysrKysrKysrKysrKysrKysrKysrKysrKysrKysrKysrKysrK//AABEIAOEA4QMBIgACEQEDEQH/xAAbAAEBAAMBAQEAAAAAAAAAAAAAAgEGBwQFA//EAEYQAAIBAwEEBAgKCAUFAAAAAAABAgMEEQUGEiExBxNBUSJUYXGBkZLRFBUjMlJik6Gx0hYzQnKCpbLDJDR0wdMXJVODo//EABQBAQAAAAAAAAAAAAAAAAAAAAD/xAAUEQEAAAAAAAAAAAAAAAAAAAAA/9oADAMBAAIRAxEAPwDuIAAGIyyRKRUAKAAAAAACWwKBGPKUmBkAAAAAAAAxGWVkiUi48gMgAAAAABLYFAhFJgZAAA/OUi5ImMQEYlgAAAAAAAhf7lmGgJKSCRkAAAAAAH5ylnzFTWUYjEDMYlAAAAAAAAiJZhoCSkgkZAAAAAAAAAAAAAAAAAAAAAAAAAAAAAAAAAAAAAAAAAAAAAAAAAAAAAAAAAAAAAAAAAAAAAAAAAAAAAAAAAAAAATJgUCMecqLAyAAABNWooxcpNKMU222kklxbb7EBR5rnUKNLhUq04P61SEfxZzDUdpb7V68rfTs0rePz6uXBtfSlNcYJ44Rj4T7e1L9p9FlpQpSrXd1Ve6nKcoKnBeqUZSk2+HPLbA6EtctfGaH29L3mFrtr4zRX/upe84ts9sjK8qydtGVOjGTSnVkpOK5JPcSU588xXLK49psNzsJpNKTjc6juVe2PXWtPd7luSi2l52B0n49tPGaH29L3j49tPGaH29L3nKNa6L5Kn11jXjc08Z3fA3mvqTj4M35OHpPLsNsvYagpUqlS4pXUE3KKlS3ZJPDlFSp5WHwcXxWV3gdh+PbTxmh9vS94+PbTxmh9vS95yDaroxr2sZVaEuvpRTclu4qxXfurhNebD8h69idjtN1Gi5KpcQrQwqtPrKLw3ylF9Xxg8PHma7AOqfHtp4zQ+3pe8fHtp4zQ+3pe807/pFY/wDlufbof8Yh0S2KeesuH550X93Vgbtb6pQqPFOtSm+6NWEn6kz1nO7roltJRahVqxljnKNGSz34UY/ifGhqOo6FUjG4bubKT3U8uWPJCUuNOaXHcb3Xh47Wg66Dz6dfU69KFWlJSpzipRa7n+D7Guxo9AAAAAAwDZiLyQ5ZLigMgAASijDQElJBIyAAAA0Hpl1aVGyjSi8OvPdl39XBb0l6XurzNm/HL+nCm1G0q4zGFStFryyUJJeqnIDddj9DjY2tOkkt/dUqr+lUklvN/gvIkar0p3sqlS1soNZqzjKSa4PMlCC4+VyePJ3pHQKVSNSEZReYyjGUX2NPimcy6Q59Tq1hVnhU80cv9ys9557kppgXtvfTtIW2lWGY1KkYJuLxPdk9yK3lylKSk5S7EvKahdW2lWcnRq/CLmtFuNWdOcKdKM1wlGmnxk0+GX2+o2nbiqrTWrW6q/qXCHhdixvwn7KnGXpPh2/wnS6l1S+B/CY3MXGnU3ZThKD3nGUZRTU1JSTccrikBNndPS50ryyrTq2FabjOEklJSj86lViuHWJcYyXd3fO+x0hQjZXtrqdv82q1KeOUmksv+OnJr+HPNmuanaTtNNp2tVYubi7VwqXOcKap9VHeXZOT5Lu4c0zZOlWDpWFhavjVShwXFvqqSpv1ymgOsxkmk1yaTRyfUaC0vXKM6Xg0LpxUorhH5WW5OOO5T3J+nB1O0puNOEXzjCKfoSRzPpOl1upafRjxmp028diqVoJP/wCcmB1IiJZhoCTy6tplO5ozoVVmFSLT70+yS7mnhp96PYkZA5n0PXc6c7qxqPLo1JSjz4NSdOql3LeUX/E+86Ycs6OX12r39eH6v5dJrk9+st1+lU2zqYAAAGz85PJU1kRiAjEoAAAAAAAAAAAAB8Xa/QlfWs6DaUniVOX0akeMX5nxT8kmfaAHL+j/AGx+Df8Ab7/5GdJ7lOU+CS7Kc3yWP2ZcmseTOydIuzfxhaYp4dam+spcViXDwoZ+svvUT27UbI2t+vlotVEsRqQaVRLuzjEl5GmaYujS+o+Da6lKMOxb1ejj0Qk0/uA/PQ9attUtlYai3Tuab3YTl4EnKPgppy5VVylF8/uWaew+sW3ydpfx6nszUq08eaG7JQ/hZ47ropvasnOpdUpzlzlJ1pSfZxbWWeq36O9Upx3aeo7kexRr3cYrzJcEB69O2Xt9Ml8N1O5VW4T3oLMpZmlwa3vCrT7nwS7uGV4dnLerrOo/Dq0HG1oSXVxfLMHmEF3tSe/J+Zebz1+ii9nLendUpyfOUpVpS9bWT20uj3VYwUIajuwSwoxr3UYpdyiuCA3rabai3sKblVmnPD3Kaa6yb8i7F9Z8EaV0eaXWvbueq3Swm5dQuOG2tzMU/wBiMcxXe232cdM2e2QrX9a4gqsFUoyxN1HNuXhSjvZw2/m9vejcI7B6ukktTkkkkkri7SSXJJLkgOpg5HquyerW9GrWlqc3GlSqVGlc3eWoRcsLL5vGDxbLaLql/R66nqNWEd+UMSubrOY448Hy4gdpOf8ASBt1ClCVtaS6y6qeA3DwlT3uGE1zqPkork+L7E/my6OtSq+DX1OTg+a6y5qr2JSSZtOyuwlrYNTinUrY/WTxld+5FcIfj5QJ6OdmXYWuJpKvVanUXDweGI08/VX3yl2G1gAAAAAAAAAAAAAAAAAAAAAAAAAAAAAAGgbQ9GqrV5XFtcyt5zcnNKMmnKXGTi4yi1l8WuPE0XZTRbm/p16ivqtPqEm05Vpb2YyfPfWPm+Xmd4Zyfokeba//AHY/0VAPjbG7K19VoznK9qQhGqoShLrKucRjPPGaX7Xc+R2LQtIpWdCFCknuQT4vjJtvMpSfe22zSOg7/KVv9T/apHRwAAAAAAAAAAAAAAAAAAAExlkmUslQQFAAAAAABLYFAjd9BUWBkA+VqO0lnby3K1zShP6LqR3lnk3HmgPqM5N0R/5a/wD3Y/0VDenttp3jlH2zm3RprNvb297GtWhTlUUdxSeHLwKi4etesDY+g9/4St/qf7VI6Mcm6I9ftbW2qwuK8KUpV95KUsNx6ums+tP1G9Q2005tJXlHL+ul97A+82IvKPxp1lNKUWpRkk4tNNNPtTXBn7RQGQAAAAAAhvPmAsEY7ikwMgAAfnKWS2jEY94CMSgAAAAAAASijDQGDKQSMga10ia1OzsalSm8VJONOD+i585LyqKk15Ujl+zNtovVKd/cTnXm3KUVG7Si23zlCOZyfNvL4v0vtWqaZRuabpV6calNtPD71yafNPzHxP0A03xSHtVfzAaR1WzH05/zH3DqtmPpz/mPuN3/AEA03xSHtVfzD9ANN8Uh7VX8wGkqjsx9Kf8AMfcZ6rZtZ3ak4trn/jW17UWvR2m7foDpvZaw9qr+YqewunS4ytYN9vhVPzAaH0ZawqN9KzpVXWtaim6UnGUXvRjv72JJOLaUk1jml5318+LpeydlbVFVo28IVEmlLMm0nweMt44cD7QAAAAAAIj95ZhoCSkgkZAAAAAAAAAAAAAAAAAAAAAAAAAAAAAAAAAAAAAAAAAAAAAAAAAAAAAAAAAAAAAAAAAAAAAAAAAAAAAAAAAAAAAS2BQI3SosDIAAAAAAYbAyyYPJMnkuKAyAAAAAAEPj5gLBG76yosDIAAAAAATKWAE5esyj80sn6gAAAJKMNASUkEjIAAAAAAbPzcsltGIxwAjEoAAAAAAAEIsw0BOCkgkZAAAAAAJlLBC4n6SjkJAEjIAAAAAAAAAAAAAAAAAAAAAAAAAAAAAAAAAAAAAAAAAAAAf/2Q==;" vertex="1" parent="1">
          <mxGeometry x="175" y="190" width="110" height="110" as="geometry" />
        </mxCell>
        <mxCell id="RU6WmHLyBRQG3oLok9dG-2" value="" style="shape=cube;whiteSpace=wrap;html=1;boundedLbl=1;backgroundOutline=1;darkOpacity=0.05;darkOpacity2=0.1;" vertex="1" parent="1">
          <mxGeometry x="170" y="260" width="120" height="80" as="geometry" />
        </mxCell>
        <mxCell id="RU6WmHLyBRQG3oLok9dG-1" value="" style="shape=image;verticalLabelPosition=bottom;labelBackgroundColor=#ffffff;verticalAlign=top;aspect=fixed;imageAspect=0;image=data:image/png,iVBORw0KGgoAAAANSUhEUgAAAO4AAADUCAMAAACs0e/bAAAA/1BMVEX///+8EUIJAAC7EUIAAAB1qSh1qijDEUS/EUMFAAB2rCh5sCkABAAABgAAAgB3riizFkIAAAi3trbu7e3Ozc0OAAquF0HCwcHa2dlNS0taeCd2pyxvmiyFFTQzDhi5FkSkFz5rEyuQFTeaFjsoJCSko6NCQECDgYGPjo719PR9tipyoCxhjCFlY2Nhgil0cnJliipZV1d5Ey9CDx1KECA3DxpZESU2MzMaFhZAUR6enZ01PxxUbyU3QhxIXSGrqqokJxJwFi4fCQ9GDx4oDRQsKSknIxs3OyJkhSoZEBI7ShsfIRIsLxlSaSgLAA9gfi4sKR1KZxwXGgkhChAzBBGWKXLAAAAZx0lEQVR4nO1di1oTyRLeMJ1Mz0xCAkhEkpCbgooiBoggF4VFJVxcdznv/yynu7qquiYJ7nr2bGbcL6VACDNDV9ftr6ru5pdf5jSnOc1pTnOa05zmNKc5zWlOc5rTnOY0pzn9i+jRo7X//ea1v3PzTGlLKfXk+fKC+fL02S8ry8srP3L3mrn+xXN786fHzzeVGr3/p8b592l5a8sO0Q7WfF5wX5V6u/LLyl/g2Vyztom34M2R+fz2+dbW439+7D9ML57SSD1FCzBw+3/5+3c/M7ceuruj1CPgoU9mw8Jfo7Wtd5LTyIrFsUlv2G/efO8Rb+3FyrMYiecQz5vPf8gu/ilaVjwu+yL6fHK0at76cvXRvr1KTKi3Dz9iky9atWweX30zDxid3R1GlmmeRfVodlxNpcfvPywrr33XX0ZmUH804t1jpe5eri+Zz9dgifbj6dPNKSr97N3TQ77k7MywefXySKnrV8m2nbXD42Mh9cfP3mfH8spT1OEIXczNdtw8uVVn1ThpfjyqVrc/qqOXd2phdEfeZ0Kln7hHRMpcotZfHqvjRpx8OW4mcdW8Xm8mzUPvv+D3bL7IgldDZG3Rzc6rVzu/n35Vp0mpmjSbpVIxjoulYqn0ZTdOTpQq7uCl6nX6EajG0dKrXaV2knj9OjG3NaolQ7vbSVyq3qiv1yfm+b+xjDez4XYZJtySOkriuFqNd6/iYtEwCZ9Kll877uToazHZQV+Ulu8TVOOl3aSxdJIUi3EVb7RPsA+Ld3aTahxbWUf2l9nrs9HnLTPOwz9WDVVG6zGML7bDBLGWSsixfX+7VEzulDoF5p75J7yBN4ydXyXF0nYs73JPsfzaN4rx3ahsftHCzdgTZsxu1IwbjUZitM6xiCO14yziN/h9cqSavwF7DBAfw7fNHXWXOHVwQnXCdbejqhh+k6r9RbtWST5kwu4j+6sP3ewT8Thx8EUxBdfWjO0teP8L69ONwTasvZJEUTHoxhJNgFOZxpK9JaP4+84O/qRaJHnQONn4aMyOGWOWiQ1L6rm7/bV9bQRrf+Cnivn14kXzKBovoCa93awIdDH6Gpe8PFmTS6nREh/m5cgiBxDPmh36beI48YpBE4YzWEQzht/QAD+uskmXrHANit+Jef7JU7GkWF4k5xiMD7yzjUGqKaeHjJ0VwlIc+5cnyrrmbMRrTS+6+aqOqyzH3WY1lpoohk2iT6x7tuIF4Z4lKfUtsZ2StcaxjeIY2ZKR+vpH5I1/tmQTtLNSo4HqV7SyO1tvJDG/4b0PS73UROu1lrvUQHc+IWBQlzhp3N01Y1Rt66kasZkt9SkTdsHV7Cast3ZM1d3b690EIigHFJwLlJ8Vr1JGN1C4gmGWsLOMZPfYgEl6iJPvunB1MyarjhYPSXdsB3k4Wi9WS6zGHKKcmTrrffTBft4msbIqcPhKGidfbx2z5KiMJewAvM4INFtQFC3tJIwrQCxx8tvq0tl24j1tGjAkxjmrrbdGxl8Sr+9st/a1yTCO1OGuYBbUBcL2gsqqoAO+Vakzh/68HOOSQYzXTQ8eBHIw7J6pheipvXU9DVFIxkZBTtXSehyzwHHeriGx/n6h4B8k66uOj7+OmrGQjdO6bTO0U8NwycdQ0lnQZoD62wyqRayyJmumsFH1sKqIMWz14vTW/MqsSjlWuqvbJhMaM1Mnoc+OYWSoJCx0ySV9n6tCycmFJ7u3SjmjFckCXBjHySuVoXTB3aw2GFyQkwWZxLHRaHW9nUhPBOJKbh04Ok28caPeJs0vyuhxErOpl0r+mrgJkDmzeoZNV9VoOyYg5WOs0+gvitVSBNfElWPUWdX7KfgZmIA6NTcUxQzy67i5mqXpGgKPcwj8loRGUqhNbLVqdb0aU+B0qaBnVwQgA6DuzNVfr5KYUw4Rnsxtr4DbLIuwkPKqpd2YHU4q3Bp53apIfXyVcKwxL6o3ESqzMF1jtIfm0tNGTFlfGnyW4h3nl7PJ7R0ZbY4+nh2fxAQiPPpF/qp3hgl1VowZRMQNrE99jRlel+LGtbkOrLYkJoHZNlfcHZ99jrKCVI7eQMb7MvaxMe16wPuMDKJgzGAm4ITKdFcxhalkZ8lcdLNdLXmx8gzi46ovz1SGIMPSI1cdZvhTZLtllS7FRYOSIwdGrHttrGJhOvqM2hwbAGHkdsTIU4Yf77ROwXIybSVsAb9fGlX2U0U/RPa4d5abj9uQ2ySiTH6UgOtqHtr5WE+8bpRKadu1SnIzXtjLjt/VnSpFVmaSQ60Z65UJmGrpKnGiXvD8mvzYZDlGkVdfJUKaPGXEtLGATPEyk2sEmYF7sy0J2Tr9rDZXrQDvXu4epnqE6mPT1Z8+g+hJ/1m4NH/VL47b7FuBVjS3u9tVHzJkJMIoU4y3VyFEq3Q702QYn+37Ny7+lDyHRf8Y8G/bV9Ytf6etNiMC57x6xVgxnR2xdsfbIzXeu3UOyxbofJ4r0JSAkBawRJkl9pJWXEfLgOOYh5ryVMiy4XcKs06jGymUyfiMw5GF0qAKWTP7iy1quKGcNbCIKpAzAw5D1Sv1ALvNmPjif2wVgL2P3K84zEU/e+Wdw8DquuGTOS8qmgCb1k9n9ySW4IQVwlG8few62jkwXCSAzqdnV+lwyeqIElt9QJlN4itV2PtkxKM7Z6dZw6k0WXAV3eyUEo/vRSDChObuAeHaKk6VjVYYgrs9Thrroww7Q9PIuavVoytbZRZOhiVcipsPcrsQrTYosSCR4qdq0ti5XgLDzaiJPZUeoXmp1eMTtl2ZL8SNh/wy3PeRWiMCa5jXjbvjJXpyrtbRrT3FYa2exCKCkhVXtw8fFq697bYRl9gQmOP4bAmZ3cyRKgMtf7IK/W03TmBxgYfN1vx2lr7LrS0B7SYec1pO7eqHpLhzaM12M4/r5qBypZZur38/Wd9tMC6qVne/jGPHKfZry5Y+A2xcrZ/8fn3jChhbWXM2lR7RajlLr0pOQnHz7rP6E9GigNXtSbNqUiSjGbZSo3j1Xd4UGekZrRRUp9svk6S0vbt+PVITklXKr5Qa/8Hno/VX28YeXr76oui9PGoy0Mpz9Eh/fP727XB1SU3ldWM4MHQ+3ChP/tguFFtaOPz27eYPd/Gn91mtGvtL9EHRsKNJe1WqMuy3w1BbCsN2b1iZqui4+lO9e5RTPUZa2/yemapoEIS6EBQK5sN+1mHQGn3HjeUIOE6j5ywr5YlX6VbOteE1CJBfR1oPKurhe57mCl2k6MUmj7u80W31O4b6gyHm9GqjHjKXgfisawcOS1wOB/1+p9/vDYbs4FRuBbxGblkdtGrWPEF2Ouw7ZoZaB06H7X8QMMlZD6HXBCZdALPWnW6FGM5oGdWf0BqB2187xj6BIWAn7ALC74YF5LKAposStl/Cc3PNYk3I3vDcinD6cpPnCiJuR310RijHQrtsgdEwLBB3QRAErMpuVmBO7DXwI5S6Drp5y+uZXuDIhoFGqQaoqHugqIF3TqTQ0ooLoblMtUL22XB/2Bm5p2bY45xOT9y4BjhgHjOq8kB7YbKQUY7AvK6XFxbKHU1G4L7o9oZ7bjZrXB+k557blPB0z/2go8ktoSZLFw0vQ+OeVaWuaSZoUjbcovxcwY01x9R5KDQWHE6n7LxNHTkNUlocBD4Ca6sGqlzTBa8f8O8yJ+0DQRBw1X4oOAVN7lQwmPR1wMyhnFG56Wp9Ds+4aGvvsEGfa2XAk3+y7WqW5FadL9AIiaOwz3hpP0SJEcsBOy0Us/VVyC/7ddAGZw+5qKgjOeH2tR8/WGPPo2H7Q5Q7KzEFIfiq+zQzI9RnNu5wX+VKvGuoyhRA3EjDlsD+Tkm90y0I1Yb32yNG2/dGvil/VqvYt7NZ5jqFXIuXnC8BpUG6szmqE9AQzLKB6gMlL9XsxO2/cAi/IC/JAmxXPAhJNZ0md8cyQVUeaC3RI2PnQIedDXm1qnRCH6TM5zqwm333D8itz2hp76kM/vt1Mu9Vo1Y71MwmabNhdn8sx1eqHwqwAZArqzXqEwQQo9wueHer6xfTsnyoZQSYK0Hw0WEY9MeZNRQtIp7E2WvBjOYDarx1uuw1NOxVpnG7AEWZ8v6gX6/Xa+12u95pQb2KJkOy7cA3+TKnzfko0YHpnmtGSMZsRTlmvOqIm0HLhhZFbVVV7jc2RuJCtdjR7Ax0OR+te0sw8z2UhUH10skqdT/stlrnw43Fh4vNSu33aqGldmdwydIu90JSZ2e8ucjz11JhKOyX/bKpxb1WjcqO7d7edIaVGtZCzREprA+Z4a7GRMoB6lz0AB27dZCCbg/Ffvlh3ZU1nA82HvhgCr+uhCVARSGs71PdZsNFJAeo8wE0XByqQfwceB+lLjuh5sjpHGzYKk9U2fcCXRDlDQfIemUqew0hWOtBbiIRsqsBLBA3ESiiQBOIjzpjPlvtaQLPlEKAlnAkUxe2GJQ7dvvt1qV0v72QMwFJJgGW8o0gXBPuIIBprwsOOD4d9EKHSHMBI7FsI6NmVO77IMI5vSvH9FJwscfZAOFtAtQeRdum0j3kvDnI8demuZ9+yOMOJCPWLociTlEWRYCCc3/z0fbIjGvsmUfetadTwHGPEK/Pe3yrpF3xWXBHF6S+U8HO6X29MtE8yu4QCUfLU2Ip1ItlLijjTCByJYc82UGRztMtYUuYB3UoFrIEzs+55Sy4vdCklihXz4tP5+DKlvaKTjVY4thib06rotH5XvYrcLaQ24vzfWGQfc15eyq3pQkI2enWC8wmzYd3zzYcLbLWh2FvlDG/75XTMxNisbBmh7MXct7uizOiduyCqL2xosmwC968pV8jtwa1A93eR36zsd/H7reXwQ2zA7LuR/ha2fVBddUdRRPDcEpEI/ZsXu+xCQGNs6yw84pbT1CuW6gYsCA2uLSeUmVZa23jpfsCigSyRMlRiaqxHRee0XllEo/ccTVY9seCw3gRR7og76P1oUtyu9wqDFj2ElrxUxW1QrHel0Fdw53vUyHVJQ1dbPtw4iusKZ9b0PfU4PYpBBUHxBdLNbiyEtK9WHOefQdUUUEOJVJbZKfCciRxsXCxr3epUJl9k0h0i3ysDoLQlijVZeifBf555ntaP3BXCPlxvkqday8glqjgH3yVW/xqXZXHIxJAUkcswLz+IORHYQtl1uKF5WKVmqiMAw8W84tIIhBx4JU0qFB4SV+TFjJ8AeM10vVq7rzXjK3XZX3dkMRhsOE9FnHSuuyVk0MrmTnE3fGrpBlQ0CJlhitcM2nG63G2qIRBmhcgu3U2wIA5JE1FM+ccEOKLd8QpVSDuiF0/G+Hl7As5UGz9NRRhM7zkIo4HU152Xj8ZVVn0IJywzBK85VugoUahiMnu9plq8xq6Za96zocuqLaQloii0ucy8ne+yjOYMmF8Aih+JeQfoMBnW2P/gKwJqYUXqMwCEBJUKqQoIOCPaxgIMaY4xu+dnTuYQf/Dyqxr7FvsQALGEc4z49oZIV52ymi92qexsNoqEHOWMly4uEcO0CsSaMdMa+ywDN9BXholxt0eszsuKnorFM1NLE9LZ05OCkP0gHoUPkC7JYXvZsjuO2wLocrarw7uWRyc1mShmg5B9j23VrzyAsEuKoazc/Bp5Mqw6DzLtRpwXMZAeCoKphAz/LssL8+38+BevDpgdRf3kRG0y4iuhZ6ANUSzZBeOIG7JuhpnRHUh0FShGdHI2BqGvTAlUqnZAUFGyipRx2fP7mFaugE2rSirk9WJlMwCWAuY4vc8HM+LC95PY74blb16YDVkpsr8SRFI4DFsEDJsM4qSTgoZCCba+rDuU0JlMUEEN41r5gBArmqWJQ04l2tILV34VEkHF2KWXAxKa3+cW1eVpsnw2uLwF9m5c81ILhDNchHsG7Ug1ifYwXE1lZeTBUL2NNDhJLfAb8AzI325qEh3CV0HWbTyoQZZCTwvEjss1vRkCAoe5HYhWuyFBVYH77NEWd36Knqgnj2IxK4f1c/HOj+jNrVsJYrUbSrOTmwoUcO2JtTlI5ZoIkBmjQ/CtaIzTXhhJ2I3pIBBGTuOvtwRa19pzWB/EcvE5QO7C6Xf753vl7H/oMotty6BeIaV+fKRA1pj6MD5jBNAu7goqrB1ptuYZvTnWu6OKuiwNsTzF3AXCi7Y6J8v4KHpFz233spy63ZTpZ54QFOL6f1sj75ZpsIc+qC9MatUo0E7dP17y1ZnWHbM7rtdKGjPdumJ5mbIxbBXhwU47X53Yq/cYg0tI5PiDWhztKjJF42BBzv6xf1Wv16r1Tu97ghV9rJDiwRFmNUBVeTt6qro4GA0ZSck73LIqDTnqjeD0OOcCRJ73Nz3sHHKJwIcaI1T4vujKftc4f1FnCTYXDTzthgcFL5QhqW4hfaUzZyT3Le47SvyHxdJOwtTeUzdDjuRMiurQ2tXXULImIKVpnLLoITjNcXSKZ16vM14cqcfJnnCBCOTfSfO0/4a6lSAfJDbc5nUSFad6+4vTr2rvD/otIN6yyBydVHPsiWG/c5fe8LTPLjuUV1qYawBpYMUqoJgYrk3PNEuH4Sdk7BprozNlmwWC25hAMEv98PucHj/AMc2jadKsyhtiIy4Pbmgbr8e8oQAbMPflNFylCcSOPZDuxg7rA8upuy25jSJ6lhcfGPHNYZUjIEOfCOsIPvlWS1rXvEQ/rJGGVqoB+UJAZdrskiBn524ee1VmEqFYVGA990ClWe3aJ0VFwISh5X2eOYDrU1WXVGZkgqdCt5Kdci14dUk/QxXRr5Wnh0JlMJWWsCwuFsUK0itfUXavlsXtnFR83s0UJ/b2DfMbnPrh1SxgXJ0y28nxW+5lgo9xCcXPBwcDjn2uhSyUEhNEK3TyG63GBmvkuy4BZx1kdFEZdnBY9MtBKnQ5OvtUaWuxZTIznaWpuvK63Z4Ejs4LdX1Rb/08SAcY5YuJYAFTkuzM+pTT9x3PgPaXZPlCv33XAamwZEPMnkpB1K3v9M3U1KLizzrXLsdhGzRdHFAvirTcyWcNqv/yO19FGV0j7JCaI0EgmOq6rD8nO/t+smTSo7WjXl9pnun3FbWPbEs2bsYxtJQohWQ0cPJlEWjMqu6ZruVEDsP7LpG739Cr8Yi16FMSdguNzO9aPkObIif0/EKY9kispvpgmb397EuNPkoD5ogVDp3FZWpAJ+KzgQhWHGt8qt7nVZlnkiw3cz+ngkSHIhZ8byQdwm8M3U9j5Tuek4L3qo7SnplwplcvJ19a2gKuW339YIYI4+VQyktLuM8iG2YWcYUkJw4C9i7gtl3safQChfY2ccKn0QNy3ta1yD0N5DKb7+HJRd9LTkNBLtugVHW56O4AjsvjfQSccAQxdsX1iuCrlBtWh8nArHQE/OplkF9eZJg9+6Fb1rK2FHAYOnbZykgzNoPH/BH0Qa81oEXJ+D3CKqy3jn1DEbR0UJmEiHg2gRegyXVU8rRFW8glwjGHwMvYAdD1p6KjLcrCm8cbcB6B4pQP6GqgnhBURgR4gHrcpC+jjZoZ39A5qbinj2z7OEDLbSxOZ0IzWMH/ei6O+ml608aCcSsBbT4P3NdpnZRN6TwKesWBc7KjRdqay9c9maOW0yPsQyQAlP44YSbhx282E8opFwtRxrOYtVlzcND5gcuoaMJcNEgmbRApjk6COYZmZ2MuAVs8WH3GZiptEJZpEDGbSc3wrS+PTZnpPlo2rnYwOv+prTJUhlRyQAsKm6ROuBT94ghrXvcH4oUb7EoMCwBZa9VcnSIE/YTemNNICwwypaK3Xusse8Ljd/aYCS6f2W/wtC7PftGvo7ochVJt0TBR03nn8eaoUpVbN/XTkand36QbjpYZU5BLceyztkBbO4YwWix7/dScEagx5s/cE5IpVKZ0lJiV5VSdzyIIyeqbGkNnE1UbvkqE9ndxDqG75DcHIqzVQjx1IHMkwNJznwjtR94sOiE1K58n8UUu6kVdyDaEFswOTsaEyvsKmr5tSb2/wNLxx7it65pbRUEsbCDywRz46aIcFt6pC5b7gxmGPXUVnc0cS4xs7uh6RwN67j7dG5MPo67SdFjPsC33O23Q3cQ7xi3zk2NLjcO9rvd4cFooTLmryAyu5O5+7Rgxzwx+8xgkl5sEjoyLF0Oz1uDYTQehPa6rU7b9oFDmI2g3e+d78lFVEpdds/Pu/uXFZ6H3J4l/155gDSurJE8iswjycnDjsbOt1LqdW7Pkl95PWUFmBv1Yq8dym0ZBU4CrUuqn0/2wB2zm9nnfN+hla1pizMi1Q34iOrCWGx2xYr65IFtRsavc82spZUph+dXeqHQ4HTVlcBTZ3xpldr8kFs1ljQhYFzQyDIVBRrP9liEzqc7nkqPxs99bFP2m1JlkeUFhTFwrbL7G8r/A71JMYynUnFn2leifE7rD0v5uUTraO2djC0tsbAEXwSBzPXSuxnUu9x7qAla9sETF1sUZDYbpL63m+pomZhayE+q9yP0zAOjUVt7jyxaweSudJ0P08vtn7n4c3rGsPe+xucZy5SW0oEarXccZd0E+nv0+AkuEV2shz7MimIF5E14wKB6klN0/AO08saxUh6Emh00V6Ihqx3gSa8/rxpLeoMKvVf37UwGHf5w0OwPzvs/EfFbhmNQA6HGds8NmfdPFmq/Q885Ud8Tu6Z0WGtxvSLzRvX/kx75XF1dDlutfr9nsv97kcL/TJjxz+nF22l/d4vfyV8t6u/S48MHNmYo9enfJVqk5XeTGzPMO5s/J2b8C7S2teBLWK6etfXzZQM/QmvP3jxFy3335sO/m1emlZWfoi4zpznNaU5zmtOc5jSnOc1pTnOa05zmNKeZ0n8BZHgJtDZfs1EAAAAASUVORK5CYII=;" vertex="1" parent="1">
          <mxGeometry x="213.87" y="288.91" width="46.13" height="41.09" as="geometry" />
        </mxCell>
        <mxCell id="RU6WmHLyBRQG3oLok9dG-7" value="&lt;br&gt;" style="shape=umlActor;verticalLabelPosition=bottom;verticalAlign=top;html=1;outlineConnect=0;" vertex="1" parent="1">
          <mxGeometry x="70" y="228.91" width="30" height="60" as="geometry" />
        </mxCell>
        <mxCell id="RU6WmHLyBRQG3oLok9dG-10" value="" style="whiteSpace=wrap;html=1;aspect=fixed;" vertex="1" parent="1">
          <mxGeometry x="428" y="365" width="80" height="80" as="geometry" />
        </mxCell>
        <mxCell id="RU6WmHLyBRQG3oLok9dG-11" value="" style="ellipse;shape=cloud;whiteSpace=wrap;html=1;" vertex="1" parent="1">
          <mxGeometry x="310" y="380" width="60" height="50" as="geometry" />
        </mxCell>
        <mxCell id="RU6WmHLyBRQG3oLok9dG-13" value="" style="shape=image;verticalLabelPosition=bottom;labelBackgroundColor=#ffffff;verticalAlign=top;aspect=fixed;imageAspect=0;image=data:image/png,iVBORw0KGgoAAAANSUhEUgAAAOEAAADhCAMAAAAJbSJIAAAAkFBMVEUGx1X///8AxEbf9eUAxlEAxk8AxUxm14sAxlD2/vrp+u9C0nmm5bjC8NTX899+4KR43Jocy2Eu0G+x7sqr6L8AwkFE0HNT0nvi9+ny/PYAylvp+vC979Dc9+c5zm6R4axt2pTL89uJ36Rb1ILH8dad5rdx3JiT5LAizWek6b9V1YKt6sSd47I+1Hyf57hX14hxlit9AAAMiUlEQVR4nN2deXu6OBDHgYYA2qpoi5xWsdbrt/X9v7vl8AAk5CQg3z/2eVy3wmeTTCbJzERR8fIC13XfeifXHXkEb69gvnfD99hY2T6AWr8EgW/Pjfg9jHgIg93WsSHUgdJPARNCf7XdN0KiCUfhfxo0+wr3UIKp2UeXmjD6nsP+090E4CGeUBF601Vvu2a9EsZZQEzoneELtd9dUNvV2dYawo/Li7XfXfopJCE8+3rXb8os0z9iCV0Ddv2aXNKMqlWtELrOawMmo3EVNRFOxq8OmAxGZ4ImDH2z6/cTINMPUYQT/0VtaEVAmdQTRs4QWjCVPo7qCN3V684SVUHHrSF88WmiLGg8Ex6HBJggHquE4UCszF32T5nQ2w7FytykX7wS4d9wrMxN+rlIGGhdv494AegVCGfDMjO54PRBOJkPzMxkArkPnhHGQ2zCpBG/b4TuYYhNmDTifHQl/BxmEyaNuLgSDrQJ00bMCd0BThVXaUFGuB9qJ0266S4jHJzD9pBppITRaqjDMBmIyTpRSVYVXb9HewL2R0L4b7jDMBmI7wnhQB2aXDBWFc+QYmhAIlPXddNM/mmmnxQZw183PGXUstcNTKgr9mHlLLdbw1gnMgxjuxyvDraffNXyESxwAsW12/t5HUJ7uf7+XISbqBxVYAXR5mPx+W92mutam0d5tqu4rZjS9OhZm6/PEzew1AZZwSgKp//p6Xl6K5y+q7yJ/2EA/bmx/2giqyrarZe22YJFAAmhaFMKwfjfAnWo3qAg/DMU4R0WvilvIv1uADV7P6k/TyeQFx3/+4JCW1ITSmj6zpSh8SqUu60v8JRdJCEE68WIly+VFcZzYf/bhRECqM8mjVaTSsHe1sS0oyBCAJypOLxci6WQiAkxhNB+F9I9y/IWhgDLKoAQQLBHB5XxMZ75+yo/oW6vRffPoo4HTseVlxBo6x/8a/IoivnWIJyEEOzabMBM1sTmaQMuQgB+WzAwNdrb7G4OD6F5+JPCl2jDHsjEQaiNuR00co1mrBMHMyHwZ/L4UoWMPZWVEBzOcgGTnrpkcnEYCXUFlwLQgoILS1uwEYIL8wqQSzNZhNqMJFWlDe3og35YCDWj9VkeqfOXBEKw74wv0cKmbEV6Qu27uxbMEVsm1Nad8qWIdB2VlhBMuwZMFlRtEkKjKyta1Hd7hKbfB0DVWlP44VSE4NCBJ1OrMbkDR0XoL7omu4ki9ICGUOuBlblpQQpIQ6iPu8YqijgGiJwQHCQueAm0IlwukhOau66ZytqQAZITmh262/XakRkbYkLYl4nirmBMhEhKCCXvypAoJHJQCQnBvJtFfbNOJMaGtA2l7YzSaEOy4icjBE4fm1C1SHIoyAi15wTpXmhzEEXod42C0ho/EokI87SFPmqDN6dEhHZLR7wChI86JCHUhQchiNMZa2tICPuzLHwWPtuHgBAsUVsX3igTqoXLX1tB9ul52sm/CG4Pyf+zJ6Gmqxi32icghKiFr2uMM/3Wf7255F/vM0Qvzj+dqmuw0czJfyUf7OfluF4In2OBix0lINQ2CMK9BjJ91YZZWlOYfWva2d9HMIt8BnBb6RFn8/rFZ/opcPK/epKp17+Ei9vPICA0EYDq9DrKYe04tWZ5/0nzARJNbk+Bs3Kv/ry+IXxPP6FDsr8Qb7HGdFM8oX4RS6iAsoP0aRYJXWpCXJI9njDvPQIJFaUUwFFuQ3rCEWbSxxOCN9GE+rhoGHnbUMWYGiwhWCFDZpjbsHT4wU14afZNsYTmGrmRz06oFOrHoHpp1ZgiCTH7ilhC+A/1y+yEyWMfni6iDX2nIuRW36Z5lOHbEGloeAjNy71n1BMCZ5LW23wIvQR/awTEE/o1BdD4CQtH5fW9FIyJT7nQQ5eM8LBphfDxR4g2HBPvmwQnLkJQLQ0mihD4I0GEntHo1WAJHXR8JRehAq+hxdy99PYgVsIlevXLR5jmPmaEKEvjloV+j+/G6QJPiP6fx0l4NWKoGd8u6xAj36M5yxdLuBVMCJzHnG6n7ULolwKtJUJTNKE++7k7kvBkCfDa1Pe+ERYzq3fdEwrvpfqvqh5uvjLwN9yrJ+5xKNqWpoSPDTIArDN3G3La0oaZl5lQ/bz/Ppz98bahNeUjdND73eyE6iOoyV7dWJtXTzrSllq/jQtE6X5pTlgTSVFdPS3LOiG3pb3mJTC2DW10RjYP4eYpELbqtblWSci3UEfN+4n4fRp01gEP4XMkBbPnjamYgF/jv7dDqFbtAzPhhHMXo+HgiY/QqpypMBNiCpXh99pOyEfxEao/5QdVCJHHQU/6bd70xhOij0fvhLvS/SVRNCIiLMyKNYTOpnQdSfSG7EqYyHaCPW9kjuh9JAFY1uqNiLAc6luZLdKyKEUBxAmXauEOlvCEyKhSpC+hnYkIVa+Y/4rzaVAzfshNCA7UhFkJXwLCUv1wVq8NMwyJzg9RpoafUN0X/oiN0MPF75GcAaPChQQQWpf7bzAShrgUGpITUtQSUQChat29N0ZCbKEyklgMlPMtgvBRDo/tDDjABu2TEJoIx23/pdfrK9tEi7XsA8zP8Sf5J/0p4D+G2b8385PYkQPrfxPC2ncIhcTToDwoKzbqlVchGE3zT1eP55x/ep7W9vkXeciGulkjfnRT+w5iYqIUHX0607FqdmHZCE9dk6CEmwxJCZWvfqVa3PVDkFBKRmh2nlZZK8yZDA2hktvDvmlCUteFkBD2Lp8k1VxkrD7ooTnFrSooCedd8zxJcM6MonWahV8nwtK55LlrPUvOUz8IC0hQZOe1WtKLXgfh+Yc966e/4nNIE+etR/0UG/zMRrjsTfYTxYUcVNnqsC9D0aKoGUVXU0FHh3zIFFHOGhshYgNftqhKf9DWNmkIVZQHSFW6jbp6y6HlQpB4/dAVNaOuwGPackolIkV7NRV9FSWz27XihtSXYSdUzFWHHXVEtCbkJExasTPnxrtQzBPshApoCF9oVe6JvsgnY1VBpRMvPFgyVDFlrX3ZhXcTMF0Fy1y/FMqsz5opYmlBnhq0pi3XvYkYr0TnqLILfJk53sxXovNUSgbQl9ZT2a9E56vnDfxYzqI4ZK9azl2TfUV1mwyjjrQlPQUSKkAbb1rms3553lDA3Qim8t1qDamAC1DM/Rb6qsX53112ezdCLgD1uKV2/IGcF5UIu2cG2t+bFgAZij+3RZhe5XERblfX/PfribwNCZiaP3UF1nCdMDpqJYm90SrprMrlT5Sjc573566gokz9sI1FlF3ai7kBUjxhIhNq/iXEXAuIUcSwnK9VK4RKdv2hP47fw4iR8ucg6ka/tghTAWj6q6URHzfUgDwXy1TUJmEqkEaka/C/I80+8mgu6M61VG0TXgW0eUzMuBBiQ2+SRJgOzBXhUvKX240pSRphMlU2pKM+9DMXfGmoRMKmRL+7BJqYqyQSKgBdCOYqt7nEBZNkEjYk+mWy/oB4wD4RTn4FzhEP9YfwSHswSCiZhA0FmRI3tJUGVOQSNpzJ/VEffBKrF7PF6LfFK+RlEiIKMll7XfTN4EXJJKz3aX6Mdp8vkVA36gBndgtzYFEy/dLnbWMrtIXfFl9VStjmKCgIPpnSyRq0zZc89k1x239KJq26B7cXvYyoFUgIicNt+VROkbQWZusdNJPvKpjKGcIEioChIannKLar4BNNxaiQ9T6aMR9a0wrMAwVTd1Dcs+58aying6YyDU8hTT7hlfaRTxCxLcl4Z0rmKAVT70ycDt/hcXry5fSYm5Ilm4JP2hf2NCixe17lhwmh68h+rDyl7r6iqoYswyZfaUGIhHAnc+jLFdxnhIG0Vb50pWW1E0KCygQvqiz1NSVcDLWbZuuZlBBdUeS1BQ7ulVD9ljsNy1K+6M4IKe5mfSGBeXQnRFfTeWVdy5TlhJ50d0qCrjW8ckL1c3gjUb+W8LoSepehIeq3GyauhOqHrBWGLPm3Q4QboXoelu/2KDN3J1SZkm76KvjYYX8QuiKCHXsiuHJrCNVoPJSFoj4unHMVCEu1KF9ZoJTMUyTkSL7pk/RyTn2JkD2BqkeCTvmEpEyY+OCvjgjHlbPmCqHqvvikoRnVEOwqoaoeJW/aipRuP9eTfSZUw5f1UfVLTa2AGkLVO2svuJoCUDvWZXvUEapqMF29GCOAq2l9Nks9YWJU48MLMQI4R+YIoggTq3qea7DFaCVRAibU5md0GDmaMIXcb1c+7C9mmglgO8auMYS8kTBRFL7Hxtz2Ta1ngsBP4OL3EJeChCNM5QVu6fqDfii92ZIkU+5/y+jyXGLaCM4AAAAASUVORK5CYII=;" vertex="1" parent="1">
          <mxGeometry x="351.5" y="90" width="50" height="50" as="geometry" />
        </mxCell>
        <mxCell id="RU6WmHLyBRQG3oLok9dG-16" value="" style="endArrow=none;html=1;entryX=0;entryY=0.5;entryDx=0;entryDy=0;exitX=0.875;exitY=0.5;exitDx=0;exitDy=0;exitPerimeter=0;" edge="1" parent="1" source="RU6WmHLyBRQG3oLok9dG-11" target="RU6WmHLyBRQG3oLok9dG-10">
          <mxGeometry width="50" height="50" relative="1" as="geometry">
            <mxPoint x="270" y="400" as="sourcePoint" />
            <mxPoint x="320" y="350" as="targetPoint" />
          </mxGeometry>
        </mxCell>
        <mxCell id="RU6WmHLyBRQG3oLok9dG-17" value="" style="whiteSpace=wrap;html=1;aspect=fixed;" vertex="1" parent="1">
          <mxGeometry x="428" y="375" width="80" height="80" as="geometry" />
        </mxCell>
        <mxCell id="RU6WmHLyBRQG3oLok9dG-18" value="http://(raspberrypi-host):8080" style="text;html=1;strokeColor=none;fillColor=none;align=center;verticalAlign=middle;whiteSpace=wrap;rounded=0;" vertex="1" parent="1">
          <mxGeometry x="378" y="310" width="170" height="80" as="geometry" />
        </mxCell>
        <mxCell id="RU6WmHLyBRQG3oLok9dG-19" value="" style="shape=trapezoid;perimeter=trapezoidPerimeter;whiteSpace=wrap;html=1;fixedSize=1;" vertex="1" parent="1">
          <mxGeometry x="25" y="288.90999999999997" width="120" height="60" as="geometry" />
        </mxCell>
        <mxCell id="RU6WmHLyBRQG3oLok9dG-20" value="&lt;br&gt;" style="shape=umlActor;verticalLabelPosition=bottom;verticalAlign=top;html=1;outlineConnect=0;" vertex="1" parent="1">
          <mxGeometry x="459.5" y="390" width="15" height="25" as="geometry" />
        </mxCell>
        <mxCell id="RU6WmHLyBRQG3oLok9dG-21" value="" style="shape=trapezoid;perimeter=trapezoidPerimeter;whiteSpace=wrap;html=1;fixedSize=1;" vertex="1" parent="1">
          <mxGeometry x="433" y="415" width="70" height="35" as="geometry" />
        </mxCell>
        <mxCell id="RU6WmHLyBRQG3oLok9dG-22" value="" style="endArrow=none;html=1;exitX=1;exitY=1;exitDx=0;exitDy=0;exitPerimeter=0;entryX=0.07;entryY=0.4;entryDx=0;entryDy=0;entryPerimeter=0;" edge="1" parent="1" source="RU6WmHLyBRQG3oLok9dG-2" target="RU6WmHLyBRQG3oLok9dG-11">
          <mxGeometry width="50" height="50" relative="1" as="geometry">
            <mxPoint x="270" y="400" as="sourcePoint" />
            <mxPoint x="320" y="350" as="targetPoint" />
          </mxGeometry>
        </mxCell>
        <mxCell id="RU6WmHLyBRQG3oLok9dG-25" value="" style="endArrow=none;html=1;entryX=0.31;entryY=0.8;entryDx=0;entryDy=0;exitX=0;exitY=0;exitDx=120;exitDy=20;exitPerimeter=0;entryPerimeter=0;" edge="1" parent="1" source="RU6WmHLyBRQG3oLok9dG-2" target="RU6WmHLyBRQG3oLok9dG-24">
          <mxGeometry width="50" height="50" relative="1" as="geometry">
            <mxPoint x="290.96000000000004" y="302" as="sourcePoint" />
            <mxPoint x="365" y="170" as="targetPoint" />
          </mxGeometry>
        </mxCell>
        <mxCell id="RU6WmHLyBRQG3oLok9dG-26" value="" style="shape=image;verticalLabelPosition=bottom;labelBackgroundColor=#ffffff;verticalAlign=top;aspect=fixed;imageAspect=0;image=data:image/png,iVBORw0KGgoAAAANSUhEUgAAAOEAAADhCAMAAAAJbSJIAAAAgVBMVEX///8kIiMAAAAXFBXz8/O8vLwjICH6+frEw8MQDw8JAwYGAADi4uLf3t7m5ea2tLUbGRqUkpNgYGAPCw0ZFhdxb3B6enqcnJwbGBrv7e4IAAUVFRVGREWurK1QTk8zMjLMzMyjo6M7OjqGhoYsKiuLiovV1dVpaWltbW12dnaXlpeXoBcgAAAEtElEQVR4nO2di3KqOhhGSaKh4IVokErVaq26q+//gCcBtHR3F8NlmuD51nSm0IF/WCaEVNt8ngcAAAAAAAAAAAAAAAAAAAAAAAAAAAAA4H/MYDyeNGc8HtgWqGa4YLQty/OTbY0f2axozElbOKNxZFvln6Rr2l6vkKSvqW2d74xZ3JGfJhZT20J/k75kDcjZqOVt+MKyQmLlWivuhb4uxpKhGg9bMBkmAcsU17aVvnJ50VdFz12M9emCZsXeOqjVGYOsj9Lnjso9a0Ue+B2V64K3UF1S8N5ZvSRQ9Uabzuq1Z63uQk66q+cL1SfEa3cF25JK9ZLLrvqoZhbocdmdGdxJ3zd08uVnk+gyM+cSTe5WtMlQX09QfsU3WxpKc5gM6b48Vct6Bd39ssfPZIbsc+ibNpnAfZmqDfRQQ92ZgmtD/mk4XunHPxd10K9ITG5TNbcN/YMeWUfLeR1WutXF9lrDbcNE3UOCD2vWiJbqdZHHYs9pw1TvbOsP9OlBtSItznPa8Fk2HOf1E0IW8xinDeeCiD+Nyqgz4+JMpw3V73ey2YxyIwk/5JtOG6pBkdYdZnKikHCZb7ptSFoYEhhaAoaGwNAiMDQEhhaBoSEwtAgMDYGhRWBoCAwtAkNDYGgRGBoCQ4vA0BAYWgSGhsDQIjA0BIYWgaEhMLQIDA2BoUVgaAgMLQJDQ2BoERgaAkOLwNAQGFoEhobA0CIwNASGFoGhITC0CAwNgaFFYGgIDC0CQ0NgaBEYGgJDi8DQEBhapEPDMN903TBsvi4GyzedNtzypku3HYPbepBOGyaM8G2jMgdOWLEyodOGT7qbXhpUmenFiXb5ttOGXrbeU/1+etFFro3vtqFuRELXm9PkZMrktNmPyGcTOm7ovWtFLmstriuzBVBn1xKOGyrFJqtCc3q8VXDd0Is4FfUk+XJESk9R5w09fzNf1uqly3lUPt99Q41fh7/O7YdhG2D425gb7qK3aGdwXE8NB0dJQxnS4Hj/0F4a7lbqsS6EXqaUn+4c20vDJzUNkOHr/HUk1cN9V31wHw1T1YB0phdgTY+U8Lg6+qCPhh/sc16t5ubsXHl0Dw2nlISfYQfPktPKRuyh4SbkorSrDCuzZHpomLA4Ke2eY1aZpNBDwz9Clt/ZmLG48kbsoeEiZsfS7jtjyY/Her00vMhlOa5iLWRlyEoPDXeUlxb5PlFCK6c1LhqSO8/DvRD767a/5XeigJw0DKoXmtdP+XWefTDdx/euPg3K77zZxyhRJKFE0EX0tPmggtA7qTuuZZSY5cws1NQ7DmkYq4l35UDq5e9/u5QzY5gVFL3QmHPOqLyXjedcVlCe9yTv5z1F5/1hf77/2VuW9xS6lPdUZHZ1lSPmYGaXd9GNSGjSxZ0zKHLXusyP6oBSdt60DZNhwpzMzvOm1/zDWu90/4NRkX8YuJZ/6E0CUeuDimrieGxb6DsPn0Pq6RSVDrJkOY8pc+k58ZXhB6OjdtDVotnfqvwaaYtEZ41DMzUAAAAAAAAAAAAAAAAAAAAAAADAPv71m1N/VtaW63+p6u9+bvdQfrmR/vJvO9/+M7ff3MS8W+98PEO/8Mob8+F66Y0H1QI95z92ynRg0X4NGQAAAABJRU5ErkJggg==;" vertex="1" parent="1">
          <mxGeometry x="510" y="190" width="63.59" height="63.59" as="geometry" />
        </mxCell>
        <mxCell id="RU6WmHLyBRQG3oLok9dG-27" value="" style="endArrow=classic;html=1;entryX=0.5;entryY=0;entryDx=0;entryDy=0;edgeStyle=orthogonalEdgeStyle;" edge="1" parent="1" target="RU6WmHLyBRQG3oLok9dG-26">
          <mxGeometry relative="1" as="geometry">
            <mxPoint x="430" y="115" as="sourcePoint" />
            <mxPoint x="501.5" y="114.5" as="targetPoint" />
          </mxGeometry>
        </mxCell>
        <mxCell id="RU6WmHLyBRQG3oLok9dG-28" value="Notify" style="edgeLabel;resizable=0;html=1;align=center;verticalAlign=middle;" connectable="0" vertex="1" parent="RU6WmHLyBRQG3oLok9dG-27">
          <mxGeometry relative="1" as="geometry" />
        </mxCell>
        <mxCell id="RU6WmHLyBRQG3oLok9dG-29" value="web camera" style="text;html=1;strokeColor=none;fillColor=none;align=center;verticalAlign=middle;whiteSpace=wrap;rounded=0;" vertex="1" parent="1">
          <mxGeometry x="210" y="190" width="50" height="30" as="geometry" />
        </mxCell>
        <mxCell id="RU6WmHLyBRQG3oLok9dG-30" value="Raspberry Pi" style="text;html=1;strokeColor=none;fillColor=none;align=center;verticalAlign=middle;whiteSpace=wrap;rounded=0;" vertex="1" parent="1">
          <mxGeometry x="180" y="345" width="110" height="30" as="geometry" />
        </mxCell>
        <mxCell id="RU6WmHLyBRQG3oLok9dG-31" value="Web Browser" style="text;html=1;strokeColor=none;fillColor=none;align=center;verticalAlign=middle;whiteSpace=wrap;rounded=0;" vertex="1" parent="1">
          <mxGeometry x="413" y="450" width="110" height="30" as="geometry" />
        </mxCell>
        <mxCell id="RU6WmHLyBRQG3oLok9dG-32" value="Smartphone" style="text;html=1;strokeColor=none;fillColor=none;align=center;verticalAlign=middle;whiteSpace=wrap;rounded=0;" vertex="1" parent="1">
          <mxGeometry x="486.8" y="243.91" width="110" height="30" as="geometry" />
        </mxCell>
        <mxCell id="RU6WmHLyBRQG3oLok9dG-33" value="" style="shape=image;verticalLabelPosition=bottom;labelBackgroundColor=#ffffff;verticalAlign=top;aspect=fixed;imageAspect=0;image=data:image/png,iVBORw0KGgoAAAANSUhEUgAAAOEAAADhCAMAAAAJbSJIAAAAkFBMVEUGx1X///8AxEbf9eUAxlEAxk8AxUxm14sAxlD2/vrp+u9C0nmm5bjC8NTX899+4KR43Jocy2Eu0G+x7sqr6L8AwkFE0HNT0nvi9+ny/PYAylvp+vC979Dc9+c5zm6R4axt2pTL89uJ36Rb1ILH8dad5rdx3JiT5LAizWek6b9V1YKt6sSd47I+1Hyf57hX14hxlit9AAAMiUlEQVR4nN2deXu6OBDHgYYA2qpoi5xWsdbrt/X9v7vl8AAk5CQg3z/2eVy3wmeTTCbJzERR8fIC13XfeifXHXkEb69gvnfD99hY2T6AWr8EgW/Pjfg9jHgIg93WsSHUgdJPARNCf7XdN0KiCUfhfxo0+wr3UIKp2UeXmjD6nsP+090E4CGeUBF601Vvu2a9EsZZQEzoneELtd9dUNvV2dYawo/Li7XfXfopJCE8+3rXb8os0z9iCV0Ddv2aXNKMqlWtELrOawMmo3EVNRFOxq8OmAxGZ4ImDH2z6/cTINMPUYQT/0VtaEVAmdQTRs4QWjCVPo7qCN3V684SVUHHrSF88WmiLGg8Ex6HBJggHquE4UCszF32T5nQ2w7FytykX7wS4d9wrMxN+rlIGGhdv494AegVCGfDMjO54PRBOJkPzMxkArkPnhHGQ2zCpBG/b4TuYYhNmDTifHQl/BxmEyaNuLgSDrQJ00bMCd0BThVXaUFGuB9qJ0266S4jHJzD9pBppITRaqjDMBmIyTpRSVYVXb9HewL2R0L4b7jDMBmI7wnhQB2aXDBWFc+QYmhAIlPXddNM/mmmnxQZw183PGXUstcNTKgr9mHlLLdbw1gnMgxjuxyvDraffNXyESxwAsW12/t5HUJ7uf7+XISbqBxVYAXR5mPx+W92mutam0d5tqu4rZjS9OhZm6/PEzew1AZZwSgKp//p6Xl6K5y+q7yJ/2EA/bmx/2giqyrarZe22YJFAAmhaFMKwfjfAnWo3qAg/DMU4R0WvilvIv1uADV7P6k/TyeQFx3/+4JCW1ITSmj6zpSh8SqUu60v8JRdJCEE68WIly+VFcZzYf/bhRECqM8mjVaTSsHe1sS0oyBCAJypOLxci6WQiAkxhNB+F9I9y/IWhgDLKoAQQLBHB5XxMZ75+yo/oW6vRffPoo4HTseVlxBo6x/8a/IoivnWIJyEEOzabMBM1sTmaQMuQgB+WzAwNdrb7G4OD6F5+JPCl2jDHsjEQaiNuR00co1mrBMHMyHwZ/L4UoWMPZWVEBzOcgGTnrpkcnEYCXUFlwLQgoILS1uwEYIL8wqQSzNZhNqMJFWlDe3og35YCDWj9VkeqfOXBEKw74wv0cKmbEV6Qu27uxbMEVsm1Nad8qWIdB2VlhBMuwZMFlRtEkKjKyta1Hd7hKbfB0DVWlP44VSE4NCBJ1OrMbkDR0XoL7omu4ki9ICGUOuBlblpQQpIQ6iPu8YqijgGiJwQHCQueAm0IlwukhOau66ZytqQAZITmh262/XakRkbYkLYl4nirmBMhEhKCCXvypAoJHJQCQnBvJtFfbNOJMaGtA2l7YzSaEOy4icjBE4fm1C1SHIoyAi15wTpXmhzEEXod42C0ho/EokI87SFPmqDN6dEhHZLR7wChI86JCHUhQchiNMZa2tICPuzLHwWPtuHgBAsUVsX3igTqoXLX1tB9ul52sm/CG4Pyf+zJ6Gmqxi32icghKiFr2uMM/3Wf7255F/vM0Qvzj+dqmuw0czJfyUf7OfluF4In2OBix0lINQ2CMK9BjJ91YZZWlOYfWva2d9HMIt8BnBb6RFn8/rFZ/opcPK/epKp17+Ei9vPICA0EYDq9DrKYe04tWZ5/0nzARJNbk+Bs3Kv/ry+IXxPP6FDsr8Qb7HGdFM8oX4RS6iAsoP0aRYJXWpCXJI9njDvPQIJFaUUwFFuQ3rCEWbSxxOCN9GE+rhoGHnbUMWYGiwhWCFDZpjbsHT4wU14afZNsYTmGrmRz06oFOrHoHpp1ZgiCTH7ilhC+A/1y+yEyWMfni6iDX2nIuRW36Z5lOHbEGloeAjNy71n1BMCZ5LW23wIvQR/awTEE/o1BdD4CQtH5fW9FIyJT7nQQ5eM8LBphfDxR4g2HBPvmwQnLkJQLQ0mihD4I0GEntHo1WAJHXR8JRehAq+hxdy99PYgVsIlevXLR5jmPmaEKEvjloV+j+/G6QJPiP6fx0l4NWKoGd8u6xAj36M5yxdLuBVMCJzHnG6n7ULolwKtJUJTNKE++7k7kvBkCfDa1Pe+ERYzq3fdEwrvpfqvqh5uvjLwN9yrJ+5xKNqWpoSPDTIArDN3G3La0oaZl5lQ/bz/Ppz98bahNeUjdND73eyE6iOoyV7dWJtXTzrSllq/jQtE6X5pTlgTSVFdPS3LOiG3pb3mJTC2DW10RjYP4eYpELbqtblWSci3UEfN+4n4fRp01gEP4XMkBbPnjamYgF/jv7dDqFbtAzPhhHMXo+HgiY/QqpypMBNiCpXh99pOyEfxEao/5QdVCJHHQU/6bd70xhOij0fvhLvS/SVRNCIiLMyKNYTOpnQdSfSG7EqYyHaCPW9kjuh9JAFY1uqNiLAc6luZLdKyKEUBxAmXauEOlvCEyKhSpC+hnYkIVa+Y/4rzaVAzfshNCA7UhFkJXwLCUv1wVq8NMwyJzg9RpoafUN0X/oiN0MPF75GcAaPChQQQWpf7bzAShrgUGpITUtQSUQChat29N0ZCbKEyklgMlPMtgvBRDo/tDDjABu2TEJoIx23/pdfrK9tEi7XsA8zP8Sf5J/0p4D+G2b8385PYkQPrfxPC2ncIhcTToDwoKzbqlVchGE3zT1eP55x/ep7W9vkXeciGulkjfnRT+w5iYqIUHX0607FqdmHZCE9dk6CEmwxJCZWvfqVa3PVDkFBKRmh2nlZZK8yZDA2hktvDvmlCUteFkBD2Lp8k1VxkrD7ooTnFrSooCedd8zxJcM6MonWahV8nwtK55LlrPUvOUz8IC0hQZOe1WtKLXgfh+Yc966e/4nNIE+etR/0UG/zMRrjsTfYTxYUcVNnqsC9D0aKoGUVXU0FHh3zIFFHOGhshYgNftqhKf9DWNmkIVZQHSFW6jbp6y6HlQpB4/dAVNaOuwGPackolIkV7NRV9FSWz27XihtSXYSdUzFWHHXVEtCbkJExasTPnxrtQzBPshApoCF9oVe6JvsgnY1VBpRMvPFgyVDFlrX3ZhXcTMF0Fy1y/FMqsz5opYmlBnhq0pi3XvYkYr0TnqLILfJk53sxXovNUSgbQl9ZT2a9E56vnDfxYzqI4ZK9azl2TfUV1mwyjjrQlPQUSKkAbb1rms3553lDA3Qim8t1qDamAC1DM/Rb6qsX53112ezdCLgD1uKV2/IGcF5UIu2cG2t+bFgAZij+3RZhe5XERblfX/PfribwNCZiaP3UF1nCdMDpqJYm90SrprMrlT5Sjc573566gokz9sI1FlF3ai7kBUjxhIhNq/iXEXAuIUcSwnK9VK4RKdv2hP47fw4iR8ucg6ka/tghTAWj6q6URHzfUgDwXy1TUJmEqkEaka/C/I80+8mgu6M61VG0TXgW0eUzMuBBiQ2+SRJgOzBXhUvKX240pSRphMlU2pKM+9DMXfGmoRMKmRL+7BJqYqyQSKgBdCOYqt7nEBZNkEjYk+mWy/oB4wD4RTn4FzhEP9YfwSHswSCiZhA0FmRI3tJUGVOQSNpzJ/VEffBKrF7PF6LfFK+RlEiIKMll7XfTN4EXJJKz3aX6Mdp8vkVA36gBndgtzYFEy/dLnbWMrtIXfFl9VStjmKCgIPpnSyRq0zZc89k1x239KJq26B7cXvYyoFUgIicNt+VROkbQWZusdNJPvKpjKGcIEioChIannKLar4BNNxaiQ9T6aMR9a0wrMAwVTd1Dcs+58aying6YyDU8hTT7hlfaRTxCxLcl4Z0rmKAVT70ycDt/hcXry5fSYm5Ilm4JP2hf2NCixe17lhwmh68h+rDyl7r6iqoYswyZfaUGIhHAnc+jLFdxnhIG0Vb50pWW1E0KCygQvqiz1NSVcDLWbZuuZlBBdUeS1BQ7ulVD9ljsNy1K+6M4IKe5mfSGBeXQnRFfTeWVdy5TlhJ50d0qCrjW8ckL1c3gjUb+W8LoSepehIeq3GyauhOqHrBWGLPm3Q4QboXoelu/2KDN3J1SZkm76KvjYYX8QuiKCHXsiuHJrCNVoPJSFoj4unHMVCEu1KF9ZoJTMUyTkSL7pk/RyTn2JkD2BqkeCTvmEpEyY+OCvjgjHlbPmCqHqvvikoRnVEOwqoaoeJW/aipRuP9eTfSZUw5f1UfVLTa2AGkLVO2svuJoCUDvWZXvUEapqMF29GCOAq2l9Nks9YWJU48MLMQI4R+YIoggTq3qea7DFaCVRAibU5md0GDmaMIXcb1c+7C9mmglgO8auMYS8kTBRFL7Hxtz2Ta1ngsBP4OL3EJeChCNM5QVu6fqDfii92ZIkU+5/y+jyXGLaCM4AAAAASUVORK5CYII=;" vertex="1" parent="1">
          <mxGeometry x="534.79" y="215.19" width="13.21" height="13.21" as="geometry" />
        </mxCell>
      </root>
    </mxGraphModel>
  </diagram>
</mxfile>
